<svg width="200" height="200" viewBox="0 0 200 200" xmlns="http://www.w3.org/2000/svg">
  <!-- Background circle -->
  <circle cx="100" cy="100" r="95" fill="#9bc9d4" stroke="#7bb5c2" stroke-width="2"/>
  
  <!-- Stethoscope design -->
  <!-- Chest piece (circular part) -->
  <circle cx="100" cy="140" r="18" fill="#ffffff" stroke="#5ea1b0" stroke-width="3"/>
  <circle cx="100" cy="140" r="12" fill="none" stroke="#5ea1b0" stroke-width="2"/>
  <circle cx="100" cy="140" r="6" fill="#5ea1b0"/>
  
  <!-- Stethoscope tube -->
  <path d="M 82 140 Q 65 125 60 100 Q 58 85 65 75 Q 75 65 90 65" 
        fill="none" stroke="#5ea1b0" stroke-width="4" stroke-linecap="round"/>
  <path d="M 118 140 Q 135 125 140 100 Q 142 85 135 75 Q 125 65 110 65" 
        fill="none" stroke="#5ea1b0" stroke-width="4" stroke-linecap="round"/>
  
  <!-- Ear pieces -->
  <circle cx="90" cy="65" r="8" fill="#ffffff" stroke="#5ea1b0" stroke-width="3"/>
  <circle cx="110" cy="65" r="8" fill="#ffffff" stroke="#5ea1b0" stroke-width="3"/>
  
  <!-- Medical cross -->
  <rect x="95" y="25" width="10" height="30" fill="#ffffff" rx="2"/>
  <rect x="80" y="32.5" width="40" height="15" fill="#ffffff" rx="2"/>
  
  <!-- Small medical icons around the border -->
  <!-- Heart -->
  <path d="M 45 80 C 45 75, 50 70, 55 70 C 60 70, 65 75, 65 80 C 65 90, 55 100, 55 100 C 55 100, 45 90, 45 80 Z" 
        fill="#dac0bc"/>
  
  <!-- Plus sign -->
  <rect x="147" y="75" width="6" height="18" fill="#dac0bc" rx="1"/>
  <rect x="141" y="81" width="18" height="6" fill="#dac0bc" rx="1"/>
  
  <!-- Pill -->
  <ellipse cx="60" cy="50" rx="8" ry="4" fill="#dac0bc"/>
  <rect x="52" y="46" width="8" height="8" fill="#ffffff"/>
  
  <!-- Thermometer -->
  <rect x="145" y="45" width="4" height="20" fill="#dac0bc" rx="2"/>
  <circle cx="147" cy="67" r="3" fill="#c09691"/>
  
  <!-- Text -->
  <text x="100" y="180" text-anchor="middle" font-family="Arial, sans-serif" font-size="16" font-weight="bold" fill="#4a8694">DK CLINIC</text>
</svg>